<svg width="26" height="26" viewBox="0 0 26 26" fill="none" xmlns="http://www.w3.org/2000/svg">
<path fill-rule="evenodd" clip-rule="evenodd" d="M8.12533 2.75C4.65059 2.75 1.91699 5.4836 1.91699 8.95833C1.91699 11.0823 2.82573 13.0216 4.4378 15.0368C6.04663 17.0479 8.37501 19.1579 11.2504 21.6242L11.2616 21.6344L11.4908 21.843C12.3469 22.6224 13.6547 22.6249 14.5138 21.8488L14.7393 21.645L14.7955 21.5939C17.5622 19.0798 19.8784 16.9749 21.5007 14.9864C23.1285 12.9911 24.0837 11.0825 24.0837 8.95833C24.0837 5.4836 21.3501 2.75 17.8753 2.75C16.6308 2.75 15.4206 3.11731 14.3899 3.75224C14.0932 3.93496 13.8112 4.13999 13.5473 4.36507C13.355 4.52911 13.1722 4.70384 13.0003 4.88839C12.8285 4.70384 12.6457 4.52911 12.4533 4.36507C12.1894 4.13999 11.9074 3.93496 11.6108 3.75224C10.5801 3.11731 9.36989 2.75 8.12533 2.75ZM3.41699 8.95833C3.41699 6.31202 5.47901 4.25 8.12533 4.25C9.07623 4.25 10.016 4.53162 10.8241 5.02937C11.2889 5.31569 11.704 5.66992 12.0486 6.07459L13.0003 7.19217L13.952 6.07459C14.2966 5.66992 14.7118 5.31569 15.1766 5.02937C15.9846 4.53162 16.9244 4.25 17.8753 4.25C20.5216 4.25 22.5837 6.31202 22.5837 8.95833C22.5837 10.5911 21.8624 12.1701 20.3384 14.0382C18.8 15.9239 16.5759 17.9492 13.7733 20.4961L13.7326 20.533L13.5082 20.7357C13.2219 20.9944 12.7859 20.9936 12.5006 20.7338L12.2706 20.5245L12.2453 20.5014L12.2296 20.4879C9.34561 18.0143 7.11903 15.9873 5.60913 14.0998C4.11308 12.2296 3.41699 10.6137 3.41699 8.95833Z" fill="#8DC63F"/>
<path d="M1.91699 8.95833C1.91699 5.4836 4.65059 2.75 8.12533 2.75C9.36989 2.75 10.5801 3.11731 11.6108 3.75224C11.9074 3.93496 12.1894 4.13999 12.4533 4.36507C12.6457 4.52911 12.8285 4.70384 13.0003 4.88839C13.1722 4.70384 13.355 4.52911 13.5473 4.36507C13.8112 4.13999 14.0932 3.93496 14.3899 3.75224C15.4206 3.11731 16.6308 2.75 17.8753 2.75C21.3501 2.75 24.0837 5.4836 24.0837 8.95833C24.0837 11.0825 23.1285 12.9911 21.5007 14.9864C19.8784 16.9749 17.5622 19.0798 14.7955 21.5939L14.7393 21.645L14.5138 21.8488C13.6547 22.6249 12.3469 22.6224 11.4908 21.843L11.2616 21.6344L11.2504 21.6242C8.37501 19.1579 6.04663 17.0479 4.4378 15.0368C2.82573 13.0216 1.91699 11.0823 1.91699 8.95833Z" fill="#894083"/>
</svg>
